<svg xmlns="http://www.w3.org/2000/svg" viewBox="0 0 24 24" fill="#4B0082" width="48px" height="48px">
    <path d="M0 0h24v24H0V0z" fill="none"/>
    <path d="M12 2C5.93 2 1 8.75 1 16c0 2.07.45 4.06 1.24 5.81 1.03 1.68 2.52 2.99 4.25 3.86 1.12.49 2.41.86 3.73 1.13l.82.17.83-.17C15.34 22.69 17.18 23 19 23s3.66-.31 5.33-.87c.31-.11.64-.24 1-.4h.01C21.53 22.06 17.1 22 12 22s-9.53.06-13.34.73c.36.16.69.29 1 .4C4.34 21.69 8.77 22 12 22s7.66-.31 11.33-.87c.31-.11.64-.24 1-.4h.01C21.53 21.06 17.1 21 12 21s-9.53.06-13.34.73c.36.16.69.29 1 .4 1.68.36 3.52.67 5.33.87 1.71-.87 3.2-2.18 4.23-3.86C22.55 20.06 23 18.07 23 16c0-7.25-4.93-14-11-14zm-1.84 9.29c-.53 0-.99.21-1.33.54-.35.34-.54.8-.54 1.33s.19.99.54 1.33l.54.54 1.33-.54c.34-.14.71-.21 1.08-.21.53 0 .99.21 1.33.54.35.34.54.8.54 1.33s-.19.99-.54 1.33l-1.86 1.86-.54-.54c-.34-.34-.8-.54-1.33-.54s-.99.19-1.33.54-.54.8-.54 1.33.19.99.54 1.33l.54.54 1.33-.54c.34-.14.71-.21 1.08-.21.53 0 .99.21 1.33.54.35.34.54.8.54 1.33s-.19.99-.54 1.33l-1.86 1.86-.54-.54c-.34-.34-.8-.54-1.33-.54s-.99.19-1.33.54-.54.8-.54 1.33.19.99.54 1.33l.54.54 1.86-1.86c.34-.34.8-.54 1.33-.54s.99.19 1.33.54.54.8.54 1.33-.19.99-.54 1.33l-1.86 1.86-.54-.54c-.34-.34-.8-.54-1.33-.54s-.99.19-1.33.54-.54.8-.54 1.33.19.99.54 1.33l1.86 1.86.54-.54c.34-.34.8-.54 1.33-.54s.99.19 1.33.54.54.8.54 1.33-.19.99-.54 1.33l-1.86 1.86-.54-.54c-.34-.34-.8-.54-1.33-.54s-.99.19-1.33.54-.54.8-.54 1.33.19.99.54 1.33l1.86 1.86.54-.54c.34-.34.8-.54 1.33-.54s.99.19 1.33.54.54.8.54 1.33-.19.99-.54 1.33c-.34.34-.8.54-1.33.54s-.99-.19-1.33-.54-.54-.8-.54-1.33.19-.99.54-1.33l1.86-1.86.54.54c.34.34.8.54 1.33.54s.99-.19 1.33-.54.54-.8.54-1.33-.19-.99-.54-1.33l-.54-.54-1.33.54c-.34.14-.71.21-1.08.21-.53 0-.99-.21-1.33-.54s-.54-.8-.54-1.33.19-.99.54-1.33l.54-.54-1.33.54c-.34.14-.71.21-1.08.21-.53 0-.99-.21-1.33-.54s-.54-.8-.54-1.33.19-.99.54-1.33l.54-.54-1.33.54c-.34.14-.71.21-1.08.21-.53 0-.99-.21-1.33-.54s-.54-.8-.54-1.33.19-.99.54-1.33l.54-.54-1.33.54c-.34.14-.71.21-1.08.21-.53 0-.99-.21-1.33-.54s-.54-.8-.54-1.33.19-.99.54-1.33l.54-.54c-.35-.34-.54-.8-.54-1.33s.19-.99.54-1.33c.34-.35.8-.54 1.33-.54s.99.19 1.33.54l.54.54 1.33-.54c.34-.14.71-.21 1.08-.21s.99.21 1.33.54c.35.34.54.8.54 1.33s-.19.99-.54 1.33l-1.86 1.86-.54-.54c-.34-.34-.8-.54-1.33-.54z"/>
</svg>
