<svg xmlns="http://www.w3.org/2000/svg" viewBox="0 0 24 24" fill="#8B4513" width="48px" height="48px">
    <path d="M0 0h24v24H0V0z" fill="none"/>
    <path d="M10.66 2.58L8.81.73a.996.996 0 0 0-1.41 0c-.39.39-.39 1.02 0 1.41l1.74 1.75-8.36 8.36C.13 12.44 0 12.72 0 13c0 1.1.9 2 2 2 .28 0 .56-.13.85-.36l8.35-8.36 1.75 1.75a.996.996 0 1 0 1.41-1.41L10.66 2.58zM17.46 9.75l1.79-1.79c.2-.2.51-.2.71 0l1.42 1.42c.2.2.2.51 0 .71L9.28 21.11a1.98 1.98 0 0 1-1.41.58c-.51 0-1-.19-1.41-.58L2.12 16.7a.996.996 0 0 1 0-1.41L14.71 2.12c.2-.2.51-.2.71 0l1.42 1.42c.2.2.2.51 0 .71L14.12 9.75c-.2.2-.2.51 0 .71z"/>
</svg>
